<svg width="175" height="60" viewBox="0 0 175 60" fill="none" xmlns="http://www.w3.org/2000/svg">
<g clip-path="url(#clip0_1_659)">
<path d="M46.9588 10.126H57.2889C57.5454 10.126 57.7755 10.3269 57.8577 10.6283L68.8486 51.3288C68.9769 51.8029 68.6875 52.2891 68.2798 52.2891H59.472C59.2057 52.2891 58.9722 52.0721 58.8966 51.7587L57.3119 45.0322C57.2396 44.7188 57.0029 44.5018 56.7366 44.5018H47.4586C47.189 44.5018 46.9555 44.7188 46.8832 45.0362L45.3413 51.7547C45.2689 52.0681 45.0322 52.2891 44.7659 52.2891H35.9613C35.5537 52.2891 35.2676 51.8029 35.3926 51.3288L46.3933 10.6283C46.4755 10.3309 46.7024 10.126 46.9621 10.126H46.9588ZM54.2741 35.2438C54.6719 35.2438 54.9579 34.7817 54.8494 34.3116L53.4751 28.4008C53.2286 27.2677 52.9261 25.7207 52.6631 24.3264C52.5184 23.5589 51.6209 23.5749 51.4959 24.3464C51.2658 25.7367 50.9929 27.2717 50.7233 28.4008L49.349 34.3116C49.2405 34.7777 49.5266 35.2438 49.9244 35.2438H54.2741Z" fill="#17A550"/>
<path d="M42.1456 26.3514C41.7182 24.3744 41.179 22.3934 40.528 20.4245C43.464 18.2828 46.7451 16.5068 50.3189 15.2129C44.0295 11.1866 37.2074 8.8842 30.3031 8.31763C29.9612 14.6584 29.6127 20.9991 29.2675 27.3399C33.2555 27.6653 37.2074 28.8306 40.9357 30.8317L42.1456 26.3514Z" fill="#FFC728"/>
<path d="M61.2539 24.4186H63.4041V23.9003C63.4041 16.5751 68.6908 15.454 72.1462 15.454C73.6619 15.454 74.6482 15.671 74.6482 15.671V22.3051C74.6482 22.3051 73.9775 22.1323 73.2378 22.1323C72.0377 22.1323 70.7687 22.518 70.7687 23.9847V24.4146H76.3743V23.8963C76.3743 16.6153 82.3317 14.6343 86.2112 14.6343C89.6305 14.6343 91.6754 15.8839 91.6754 15.8839L90.1959 22.3894C90.1959 22.3894 88.9959 21.5295 87.1285 21.5295C85.6128 21.5295 83.7454 22.3493 83.7454 23.9847V24.4146H95.3445V46.6032H87.9767V31.0487H83.7454V46.6032H76.3776V31.0487H70.772V46.6032H63.4041V31.0487H61.2539V24.4146V24.4186Z" fill="#1D2F38"/>
<path d="M96.9128 15.8037H104.281V36.7868C104.281 38.8964 104.596 39.5433 105.796 39.5433C106.148 39.5433 106.536 39.4589 106.536 39.4589V46.6556C106.536 46.6556 105.445 46.8284 104.103 46.8284C100.473 46.8284 96.9128 45.4501 96.9128 37.9963V15.8037Z" fill="#1D2F38"/>
<path d="M108.476 24.4187H115.844V46.6073H108.476V24.4187ZM108.545 15.0684H115.771V21.6181H108.545V15.0684Z" fill="#1D2F38"/>
<path d="M127.426 32.7805H127.568V32.3908C127.568 30.9683 126.723 30.4098 125.312 30.4098C122.916 30.4098 120.377 32.3064 120.377 32.3064L118.296 26.488C118.296 26.488 121.4 23.9043 126.509 23.9043C131.618 23.9043 134.936 27.0064 134.936 32.7363V46.6112H128.202V45.2772C128.202 44.6745 128.271 44.0275 128.271 44.0275H128.202C128.202 44.0275 126.828 47.1296 123.231 47.1296C120.164 47.1296 117.132 44.7588 117.132 40.1499C117.132 33.2547 124.605 32.7846 127.426 32.7846V32.7805ZM125.381 41.2268C126.756 41.2268 127.742 39.5472 127.742 37.9962V37.2649H127.285C125.664 37.2649 123.935 37.9118 123.935 39.5914C123.935 40.5839 124.428 41.2268 125.381 41.2268Z" fill="#1D2F38"/>
<path d="M138.033 31.4426H135.777V24.8086H138.21V18.4316H145.4V24.8086H149.139V31.4426H145.4V36.6985C145.4 39.242 147.057 39.5433 148.116 39.5433C148.892 39.5433 149.385 39.459 149.385 39.459V46.6556C149.385 46.6556 148.257 46.8284 146.637 46.8284C143.254 46.8284 138.036 45.6229 138.036 37.9963V31.4466L138.033 31.4426Z" fill="#1D2F38"/>
<path d="M160.593 23.9043C166.373 23.9043 169.266 28.473 169.266 34.2432C169.266 35.2357 169.125 36.9997 169.125 36.9997H158.127C158.41 39.4548 159.926 40.4473 161.898 40.4473C164.755 40.4473 166.797 38.4221 166.797 38.4221L169.23 44.1521C169.23 44.1521 166.445 47.1256 161.3 47.1256C154.037 47.1256 150.723 41.3956 150.723 35.4928C150.723 29.0315 154.353 23.9043 160.593 23.9043ZM162.638 32.4792C162.602 30.671 161.721 29.5499 160.557 29.5499C159.219 29.5499 158.443 30.7152 158.229 32.4792H162.635H162.638Z" fill="#1D2F38"/>
<path d="M5.34411 4.68161L4.87815 4.94355C4.23479 5.30521 3.95313 6.23581 4.24904 7.02212L23.0157 56.8891C23.3116 57.6754 24.073 58.0196 24.7164 57.6579L25.1824 57.396C25.8257 57.0344 26.1074 56.1037 25.8115 55.3174L7.04482 5.4505C6.7489 4.66419 5.98747 4.31995 5.34411 4.68161Z" fill="#768F9C"/>
<path d="M5.65967 8.63245C7.41664 8.15757 8.52598 6.03185 8.13743 3.8845C7.74888 1.73716 6.00959 0.381351 4.25261 0.856226C2.49563 1.3311 1.3863 3.45683 1.77485 5.60418C2.1634 7.75152 3.90269 9.10733 5.65967 8.63245Z" fill="#768F9C"/>
<path d="M37.3027 9.49496C35.1295 8.90027 31.8188 8.43817 30.3064 8.31763C29.9645 14.6584 29.616 20.9991 29.2708 27.3399C30.3097 27.4242 33.3805 28.035 34.4128 28.2359C35.4879 21.1076 36.4874 15.7754 37.306 9.49898L37.3027 9.49496Z" fill="#FEAD1C"/>
<path d="M31.4177 26.3997C24.9014 25.3872 18.2009 26.5725 12.0759 29.984C9.77117 23.804 7.46975 17.628 5.16504 11.448C13.5389 6.78684 22.646 4.95855 31.5788 5.93498C32.644 6.0515 33.4133 7.2409 33.2785 8.53476C32.6571 14.4898 32.039 20.4407 31.4177 26.3957V26.3997Z" fill="#FFC728"/>
</g>
<defs>
<clipPath id="clip0_1_659">
<rect width="175" height="60" fill="white"/>
</clipPath>
</defs>
</svg>
